<svg id="Layer_1" enable-background="new 0 0 512.072 512.072" height="512" viewBox="0 0 512.072 512.072" width="512" xmlns="http://www.w3.org/2000/svg"><g><path d="m66.825 57.99c15.021 13.019 34.503-7.743 20.495-21.908 0 0-31-29-31-29-5.767-5.395-14.729-5.395-20.495 0l-31 29c-6.049 5.66-6.366 15.152-.707 21.202 5.66 6.049 15.152 6.366 21.202.707l5.752-5.381v281.855l-5.752-5.381c-14.996-13.035-34.514 7.783-20.495 21.908 0 0 31 29 31 29 2.883 2.697 6.565 4.046 10.248 4.046s7.364-1.349 10.248-4.046l31-29c14.005-14.105-5.471-34.952-20.495-21.908 0 0-5.752 5.381-5.752 5.381v-281.857z"/><path d="m508.026 455.788-29-31c-14.116-14.012-34.948 5.483-21.908 20.495 0 0 5.381 5.752 5.381 5.752h-301.354l5.381-5.752c13.036-14.993-7.782-34.514-21.908-20.495 0 0-29 31-29 31-5.395 5.767-5.395 14.729 0 20.495 0 0 29 31 29 31 2.954 3.157 6.95 4.752 10.957 4.752 12.885.136 19.942-15.791 10.951-25.248 0 0-5.381-5.752-5.381-5.752h301.354l-5.381 5.752c-5.659 6.05-5.343 15.542.707 21.202 6.038 5.651 15.532 5.352 21.202-.707 0 0 29-31 29-31 5.394-5.765 5.394-14.727-.001-20.494z"/><path d="m131.072 384.036h366c8.284 0 15-6.716 15-15v-354c0-8.284-6.716-15-15-15h-366c-8.284 0-15 6.716-15 15v354c0 8.284 6.716 15 15 15zm51.497-223.457c1.596-4.912 5.606-8.657 10.615-9.914l69.9-17.537 38.279-61.06c2.743-4.376 7.544-7.033 12.709-7.033s9.966 2.657 12.709 7.033l38.279 61.06 69.9 17.537c5.009 1.256 9.02 5.002 10.615 9.914 1.596 4.912.553 10.299-2.761 14.26l-46.242 55.274 4.921 71.898c.353 5.152-1.97 10.124-6.148 13.16-4.188 3.045-9.649 3.702-14.416 1.781 0 0-66.858-26.898-66.858-26.898l-66.858 26.898c-4.792 1.929-10.237 1.255-14.416-1.781s-6.501-8.007-6.148-13.16l4.921-71.898-46.242-55.274c-3.312-3.961-4.355-9.349-2.759-14.26z"/><path d="m261.914 226.142-3.7 54.048c2.17-.507 55.521-23.382 55.858-21.304 1.901 0 3.802.362 5.599 1.084l50.26 20.22-3.699-54.048c-.265-3.863.975-7.679 3.46-10.649l34.761-41.552-52.546-13.183c-3.756-.942-7.001-3.3-9.059-6.582l-28.776-45.9-28.776 45.9c-2.057 3.281-5.303 5.64-9.059 6.582l-52.546 13.183 34.762 41.552c2.486 2.969 3.725 6.785 3.461 10.649z"/></g></svg>