<svg enable-background="new 0 0 512 512" height="512" viewBox="0 0 512 512" width="512" xmlns="http://www.w3.org/2000/svg"><g id="_x34_65_x2C__User_x2C__idea_x2C__innovation_x2C__lightbulb_x2C__technology"><g id="XMLID_449_"><g id="XMLID_450_"><path id="XMLID_252_" d="m255.756 47.504c2.761 0 5-2.239 5-5v-28.239c0-2.761-2.239-5-5-5s-5 2.239-5 5v28.239c0 2.761 2.239 5 5 5z"/><path id="XMLID_251_" d="m342.739 70.804c.788.456 1.648.672 2.497.672 1.728 0 3.408-.896 4.334-2.5l14.119-24.434c1.382-2.391.563-5.449-1.828-6.831-2.39-1.382-5.449-.563-6.831 1.828l-14.119 24.434c-1.381 2.391-.563 5.45 1.828 6.831z"/><path id="XMLID_250_" d="m410.758 136.989c.849 0 1.709-.217 2.497-.672l24.434-14.12c2.391-1.382 3.209-4.44 1.827-6.831-1.381-2.391-4.439-3.209-6.831-1.827l-24.434 14.12c-2.391 1.382-3.209 4.44-1.827 6.831.927 1.603 2.607 2.499 4.334 2.499z"/><path id="XMLID_249_" d="m462.963 216.471h-28.239c-2.761 0-5 2.239-5 5s2.239 5 5 5h28.239c2.761 0 5-2.239 5-5s-2.238-5-5-5z"/><path id="XMLID_248_" d="m437.689 320.746-24.434-14.12c-2.393-1.381-5.449-.563-6.831 1.827-1.382 2.391-.563 5.449 1.827 6.831l24.434 14.12c.788.455 1.648.672 2.497.672 1.728 0 3.408-.896 4.334-2.499 1.382-2.391.564-5.449-1.827-6.831z"/><path id="XMLID_247_" d="m98.278 306.625-24.452 14.12c-2.391 1.381-3.21 4.439-1.83 6.831.926 1.604 2.607 2.5 4.335 2.5.848 0 1.708-.216 2.496-.671l24.452-14.12c2.391-1.381 3.21-4.439 1.83-6.831s-4.44-3.211-6.831-1.829z"/><path id="XMLID_246_" d="m48.549 226.471h28.239c2.761 0 5-2.239 5-5s-2.239-5-5-5h-28.239c-2.761 0-5 2.239-5 5s2.239 5 5 5z"/><path id="XMLID_245_" d="m103.279 127.657-24.452-14.12c-2.393-1.381-5.45-.561-6.831 1.83-1.381 2.392-.562 5.45 1.83 6.831l24.452 14.12c.788.455 1.647.671 2.496.671 1.728 0 3.409-.897 4.335-2.5 1.38-2.393.561-5.451-1.83-6.832z"/><path id="XMLID_244_" d="m161.944 68.976c.926 1.604 2.606 2.5 4.334 2.5.849 0 1.709-.217 2.497-.672 2.391-1.381 3.209-4.44 1.828-6.831l-14.12-24.433c-1.381-2.392-4.439-3.208-6.831-1.828-2.391 1.381-3.209 4.44-1.828 6.831z"/><path id="XMLID_243_" d="m235.057 489.261h41.399c20.182 0 36.892-15.147 39.357-34.671h-120.113c2.466 19.524 19.175 34.671 39.357 34.671z"/><path id="XMLID_242_" d="m297.186 221.211c-9.821 12.014-24.744 19.699-41.43 19.699-16.685 0-31.608-7.685-41.429-19.699-12.686 9.919-20.15 24.977-20.15 41.161v2.61h123.158v-2.61c0-16.184-7.464-31.242-20.149-41.161z"/><path id="XMLID_457_" d="m255.756 67.67c-77.992 0-141.443 63.458-141.443 141.46 0 45.613 22.191 88.671 59.361 115.182 1.316.938 2.097 2.455 2.097 4.071v46.89h159.97v-46.89c0-1.616.781-3.133 2.098-4.071 37.17-26.497 59.361-69.556 59.361-115.182 0-78.001-63.451-141.46-141.444-141.46zm71.579 202.313c0 2.761-2.239 5-5 5h-133.158c-2.761 0-5-2.239-5-5v-7.61c0-19.529 9.095-37.692 24.545-49.489-4.13-7.591-6.478-16.286-6.478-25.52 0-29.507 24.005-53.513 53.512-53.513s53.513 24.006 53.513 53.513c0 9.234-2.348 17.929-6.478 25.52 15.45 11.797 24.544 29.959 24.544 49.489z"/><path id="XMLID_239_" d="m255.756 230.91c23.993 0 43.513-19.535 43.513-43.547 0-23.993-19.52-43.513-43.513-43.513s-43.512 19.52-43.512 43.513c.001 24.012 19.52 43.547 43.512 43.547z"/><path id="XMLID_238_" d="m465.095 44.036c-8.861 0-16.07 7.209-16.07 16.07s7.209 16.07 16.07 16.07 16.07-7.209 16.07-16.07-7.209-16.07-16.07-16.07z"/><path id="XMLID_237_" d="m170.771 385.273h-8.283v59.318h27.898 130.741 27.916v-59.318h-8.302z"/><path id="XMLID_236_" d="m43.488 477.428c-6.977 0-12.653 5.676-12.653 12.653s5.676 12.653 12.653 12.653c6.978 0 12.654-5.676 12.654-12.653s-5.676-12.653-12.654-12.653z"/><circle id="XMLID_235_" cx="452.714" cy="463.739" r="8.69"/><circle id="XMLID_234_" cx="67.949" cy="68.796" r="8.69"/></g></g></g></svg>