<svg id="svg8" height="512" viewBox="0 0 16.933333 16.933334" width="512" xmlns="http://www.w3.org/2000/svg" xmlns:svg="http://www.w3.org/2000/svg"><g id="layer6" stroke-linejoin="round" stroke-width="3.78" transform="scale(.265)"><path id="path1737" d="m13 4.9980469c-2.508104 0-3.7247263 1.1896871-4.3554688 2.4511719-.6307481 1.2614849-.6425781 2.5527342-.6425781 2.5527342v38.916016c1.1880121-1.230561 2.8651669-1.917969 4.9980469-1.917969h38.001953c2.513371 0 3.724726-1.189687 4.355469-2.451172.630825-1.261481.640625-2.544922.640625-2.544922v-32.001953c0-2.5286117-1.181874-3.7247263-2.443359-4.3554686-1.261488-.6307495-2.552735-.6484375-2.552735-.6484375zm4 6.0000001c1.853966 0 3.428465 1.284722 3.875 3.005859h7.251953c.446536-1.721137 2.019081-3.005859 3.873047-3.005859 1.853966-.000001 3.428465 1.284722 3.875 3.005859h7.251953c.446536-1.721137 2.019081-3.005859 3.873047-3.005859 2.197293-.000001 4.001953 1.80466 4.001953 4.001953 0 2.197292-1.80466 4.001953-4.001953 4.001953-1.853966 0-3.426511-1.284722-3.873047-3.005859h-3.916015c2.994032 1.798911 5.218627 4.667378 6.21289 8.02539 2.000438.214272 3.578125 1.924493 3.578125 3.978516 0 2.197293-1.80466 4-4.001953 4s-4.001953-1.802707-4.001953-4c0-1.637989 1.003318-3.057432 2.423828-3.673828-1.165259-3.628117-4.013451-6.553114-7.748047-7.75-.616011 1.421387-2.035203 2.425782-3.673828 2.425781-1.637988 0-3.055478-1.003319-3.671875-2.423828-3.732384 1.196516-6.586019 4.121231-7.753906 7.746094 1.422869.61536 2.427735 2.03608 2.427734 3.675781.000001 2.197293-1.802707 4-4 4-2.197292 0-4.001953-1.802707-4.001953-4-.000001-2.055236 1.577958-3.765886 3.580078-3.978516.995799-3.356908 3.220902-6.226758 6.214844-8.02539h-3.919922c-.446536 1.721137-2.021035 3.005859-3.875 3.005859-2.197293 0-4-1.804661-4-4.001953s1.802707-4.001953 4-4.001953zm0 2.001953c-1.116413 0-2 .883588-2 2s.883587 2 2 2 2.001953-.883588 2.001953-2c.000001-1.116412-.88554-2-2.001953-2zm15 0c-1.116413 0-2 .883588-2 2s.883587 2 2 2 2.001953-.883588 2.001953-2c0-1.116413-.88554-2-2.001953-2zm15 0c-1.116412 0-2 .883587-2 2 0 1.116412.883588 2 2 2s2.001953-.883588 2.001953-2c0-1.116413-.885541-2-2.001953-2zm-15 10.001953c.284456-.000341.556121.120312.746094.332031l8.001953 8.998047c.229381.260119.307869.621336.207031.953125l-2.998047 10.001953c-.125884.424944-.515778.717122-.958984.716797h-9.994141c-.443205.000325-.835053-.291845-.960937-.716797l-3.003907-10.001953c-.098891-.333057-.017075-.694435.214844-.953125l8.001953-8.998047c.189973-.211719.459685-.332372.744141-.332031zm-12.998047 2.996094c-1.116413 0-2.001954.88554-2.001953 2.001953 0 1.116412.88554 2 2.001953 2s2.000001-.883588 2-2c.000001-1.116413-.883586-2.001953-2-2.001953zm25.998047 0c-1.116412 0-2 .88554-2 2.001953 0 1.116412.883588 2 2 2s2-.883588 2-2c0-1.116413-.883588-2.001953-2-2.001953zm-12.003906.626953v5.375h-2v-5.365234l-5.875 6.613281 2.61914 8.755859h8.511719l2.628906-8.755859z" paint-order="stroke fill markers"/><path id="path1755" d="m55.998047 47.087891v.908203c0 2.523398-1.181874 3.724726-2.443359 4.355468-1.261486.630739-2.552735.650391-2.552735.650391h-38.001953v2h38.001953s1.708755.01368 3.447266-.855469c.527345-.263673 1.06056-.615056 1.548828-1.072265v.923828c0 2.666661-1.181874 3.724726-2.443359 4.355469-1.261486.630742-2.552735.65039-2.552735.65039h-38.001953c-2.666664 0-3.7247265-1.18969-4.3554688-2.451172-.6307422-1.261485-.6425781-2.554687-.6425781-2.554687s.01183-1.291245.6425781-2.552735c.630742-1.261481 1.8485188-2.443359 4.3554688-2.443359h38.001953c2.286255 0 3.916929-.817542 4.996094-1.914062z" paint-order="stroke fill markers"/></g></svg>