<svg height="512" viewBox="0 0 64 64" width="512" xmlns="http://www.w3.org/2000/svg"><g id="Layer_22" data-name="Layer 22"><path d="m41 3h-38v52h6v-47a1 1 0 0 1 1-1h31z"/><path d="m56.293 41.707a1 1 0 0 1 .082-1.488l3.425-2.739-16.425-4.106 4.105 16.426 2.739-3.424a1 1 0 0 1 .726-.376h.055a1 1 0 0 1 .707.293l3.679 3.679.634-3.172a1 1 0 0 1 .784-.784l3.168-.634z"/><path d="m43 10.414v4.586h4.586z"/><path d="m47 53a1.029 1.029 0 0 1 -.213-.023 1 1 0 0 1 -.757-.735l-5-20a1 1 0 0 1 1.213-1.212l6.757 1.69v-15.72h-7a1 1 0 0 1 -1-1v-7h-30v52h38v-9.9l-1.219 1.524a1 1 0 0 1 -.781.376zm-30-38h22v2h-22zm-4 4h34v2h-34zm0 4h34v2h-34zm0 4h34v2h-34zm0 4h26v2h-26zm0 4h26v2h-26zm0 4h26v2h-26zm34 18h-26v-2h26z"/></g></svg>