<svg id="Capa_1" enable-background="new 0 0 510 510" height="512" viewBox="0 0 510 510" width="512" xmlns="http://www.w3.org/2000/svg"><g><path d="m502.5 120v-120h-120v120h45v75h-45v45h-46.275c-2.442-30.86-9.074-62.703-25.4-90.107 1.73 11.598 1.819 23.486.134 35.291l-14.542 101.794c-3.479 24.356-2.521 49.119 2.717 73.022h38.366c-.012-89.002.025-84.189-.029-90h45.029v45h45v75h-45v120h120v-120h-45v-75h45v-120h-45v-75z"/><path d="m17.822 450h330v60h-330z"/><path d="m63.959 209.621c5.104-1.32 36.175-14.621 81.363-14.621h.01c21.346-.004 41.225-10.627 53.084-28.414.771-1.158 5.915-8.874 6.604-9.906 5.6 3.733 19.607 13.07 24.962 16.641l-6.604 9.906c-16.712 25.066-44.208 40.443-74.139 41.683l-42.689 82.42c-18.85 34.56-28.73 73.3-28.73 112.67h210.002c-2.554-9.146-31.935-61.457-21.105-137.266l14.542-101.793c7.99-55.931-37.491-105.941-83.437-105.941-17-41-75-60-75-60v60l-96.381 60.238c-14.214 8.883-21.444 25.638-18.157 42.073 5.066 25.323 31.177 40.476 55.675 32.31z"/></g></svg>