<?xml version="1.0" encoding="UTF-8"?><svg xmlns="http://www.w3.org/2000/svg" viewBox="0 0 688 688.15423"><defs><style>.c{fill:#fff;fill-rule:evenodd;}.d{fill:#231f20;}</style></defs><g id="a"/><g id="b"><g><circle class="d" cx="302.83197" cy="344.07714" r="224.84744" transform="translate(-154.60185 314.9124) rotate(-45)"/><path class="c" d="M236.69928,200.84696h132.2652c42.4893,0,77.4403,34.9509,77.4403,77.4402v131.5799c0,42.4894-34.951,77.4402-77.4403,77.4402H236.69928c-42.48928,0-77.4404-34.9508-77.4404-77.4402v-131.5799c0-42.4893,34.95111-77.4402,77.4404-77.4402h0Zm143.2302,50.0279h0c8.9091,0,16.4477,7.5383,16.4477,16.4473h0c0,8.9092-7.5386,16.4475-16.4477,16.4475h0c-9.5944,0-16.44748-7.5383-16.44748-16.4475h0c0-8.909,6.85308-16.4473,16.44748-16.4473h0Zm-77.4402,15.0767h.6852c42.4894,0,78.1258,35.6362,78.1258,78.1256h0c0,43.1747-35.6364,78.1254-78.1258,78.1254h-.6852c-42.4894,0-77.4404-34.9507-77.4404-78.1254h0c0-42.4894,34.951-78.1256,77.4404-78.1256h0Zm0,26.7273h.6852c28.0979,0,51.3983,23.3007,51.3983,51.3983h0c0,28.7831-23.3004,52.0837-51.3983,52.0837h-.6852c-28.0979,0-51.3985-23.3006-51.3985-52.0837h0c0-28.0976,23.3006-51.3983,51.3985-51.3983h0Zm-65.1048-67.1606h130.8947c29.4684,0,53.4544,23.9858,53.4544,53.4543v130.2093c0,29.4684-23.986,53.4544-53.4544,53.4544H237.38448c-29.4683,0-53.4541-23.986-53.4541-53.4544v-130.2093c0-29.4685,23.9858-53.4543,53.4541-53.4543h0Z"/></g></g></svg>