<svg id="Layer_1" enable-background="new 0 0 66 66" height="512" viewBox="0 0 66 66" width="512" xmlns="http://www.w3.org/2000/svg"><g><path d="m18 33c1.66 0 3-1.34 3-3v-19h26v-6h-21l-2-3h-9v28c0 1.66 1.34 3 3 3zm1-28h2c.55 0 1 .45 1 1 0 .56-.45 1-1 1h-2c-.56 0-1-.44-1-1 0-.55.44-1 1-1z"/><path d="m11 44h18c.05 0 .09-.02.13-.03.36 1.42 1.47 2.54 2.9 2.9-.01.04-.03.08-.03.13v3h2v-3c0-.05-.02-.09-.03-.13 1.42-.36 2.53-1.47 2.89-2.9.05.01.09.03.14.03h18v6h2v-7c0-.55-.45-1-1-1h-19c-.05 0-.09.02-.14.03-.36-1.42-1.47-2.53-2.89-2.89.01-.05.03-.09.03-.14v-4h-2v4c0 .05.02.09.03.13-1.42.36-2.53 1.47-2.89 2.89-.05 0-.09-.02-.14-.02h-19c-.56 0-1 .45-1 1v7h2z"/><path d="m36.5 25.8c1.55 0 2.8-1.25 2.8-2.8s-1.25-2.8-2.8-2.8-2.8 1.25-2.8 2.8 1.25 2.8 2.8 2.8z"/><path d="m23 30c0 1.13-.4 2.16-1.03 3h25.03c2.21 0 4-1.79 4-4v-16h-28zm6.5-8.27 1.85-.31c.1-.33.23-.64.39-.94l-1.09-1.53 1.8-1.8 1.53 1.1c.29-.16.61-.29.94-.4l.3-1.85h2.55l.31 1.85c.33.11.64.24.94.4l1.53-1.1 1.8 1.8-1.1 1.53c.16.3.29.61.39.94l1.86.31v2.55l-1.86.3c-.1.33-.23.64-.39.94l1.1 1.53-1.8 1.8-1.53-1.09c-.3.16-.61.29-.94.39l-.31 1.85h-2.55l-.3-1.85c-.33-.1-.65-.23-.94-.39l-1.53 1.09-1.8-1.8 1.09-1.53c-.16-.3-.29-.61-.39-.94l-1.85-.3z"/><path d="m25 64h16v-12h-16zm4-9h8c.55 0 1 .45 1 1 0 .56-.45 1-1 1h-8c-.56 0-1-.44-1-1 0-.55.44-1 1-1zm0 4h4c.55 0 1 .45 1 1 0 .56-.45 1-1 1h-4c-.56 0-1-.44-1-1 0-.55.44-1 1-1z"/><path d="m48 52v12h16v-12zm8 9h-4c-.56 0-1-.44-1-1 0-.55.44-1 1-1h4c.55 0 1 .45 1 1 0 .56-.45 1-1 1zm4-4h-8c-.56 0-1-.44-1-1 0-.55.44-1 1-1h8c.55 0 1 .45 1 1 0 .56-.45 1-1 1z"/><path d="m2 64h16v-12h-16zm4-9h8c.55 0 1 .45 1 1 0 .56-.45 1-1 1h-8c-.56 0-1-.44-1-1 0-.55.44-1 1-1zm0 4h4c.55 0 1 .45 1 1 0 .56-.45 1-1 1h-4c-.56 0-1-.44-1-1 0-.55.44-1 1-1z"/></g></svg>