<svg height="512" viewBox="0 0 64 64" width="512" xmlns="http://www.w3.org/2000/svg"><g id="Layer_22" data-name="Layer 22"><path d="m32 3.4a28.59 28.59 0 0 0 -28.6 28.6 28.59 28.59 0 0 0 28.6 28.6 28.59 28.59 0 0 0 28.6-28.6 28.59 28.59 0 0 0 -28.6-28.6zm.14 51.65h-.28a4.12 4.12 0 0 1 -4.11-4.11v-2h8.5v2a4.12 4.12 0 0 1 -4.11 4.11zm.46-7.32v-10.64a4.53 4.53 0 0 0 3.94-4.48.6.6 0 0 0 -1.2 0 3.34 3.34 0 0 1 -6.68 0 .6.6 0 0 0 -1.2 0 4.53 4.53 0 0 0 3.94 4.48v10.64h-3.65a15.85 15.85 0 0 0 -3.76-10 10.49 10.49 0 1 1 18.22-9.27 10.65 10.65 0 0 1 -2.05 9.09 16.55 16.55 0 0 0 -3.91 10.18zm-1.2-39.38a.6.6 0 0 1 1.2 0v4.92a.6.6 0 1 1 -1.2 0zm-17.75 23.87h-4.92a.6.6 0 0 1 0-1.2h4.92a.6.6 0 0 1 0 1.2zm5.8 12.78-3.45 3.5a.6.6 0 1 1 -.85-.85l1.74-1.74 1.74-1.74a.61.61 0 0 1 .85 0 .59.59 0 0 1 .17.43.57.57 0 0 1 -.2.4zm0-25.95a.59.59 0 0 1 -.85 0l-3.48-3.48a.58.58 0 0 1 -.17-.42.59.59 0 0 1 .17-.43.61.61 0 0 1 .85 0l3.48 3.48a.59.59 0 0 1 0 .85zm29.43 29.45a.59.59 0 0 1 -.85 0l-3.48-3.5a.57.57 0 0 1 -.17-.42.6.6 0 0 1 1-.43l3.48 3.48a.59.59 0 0 1 .17.43.57.57 0 0 1 -.15.44zm0-32.91-3.48 3.48a.59.59 0 0 1 -.85 0 .58.58 0 0 1 -.17-.42.59.59 0 0 1 .17-.43l3.45-3.48a.61.61 0 0 1 1 .43.58.58 0 0 1 -.12.42zm6.39 16.63h-4.92a.6.6 0 0 1 -.6-.6.6.6 0 0 1 .6-.6h4.92a.6.6 0 0 1 .6.6.6.6 0 0 1 -.6.6z"/></g></svg>