<?xml version="1.0" encoding="iso-8859-1"?>
<!-- Generator: Adobe Illustrator 19.0.0, SVG Export Plug-In . SVG Version: 6.00 Build 0)  -->
<svg version="1.1" id="Capa_1" xmlns="http://www.w3.org/2000/svg" xmlns:xlink="http://www.w3.org/1999/xlink" x="0px" y="0px"
	 viewBox="0 0 512 512" style="enable-background:new 0 0 512 512;" xml:space="preserve">
<g>
	<g>
		<path d="M233.3,283c-1.8-3.5-5.5-5.7-9.5-5.7h-32V160c0.2-5.9-4.6-10.7-10.5-10.7h-64c-5.9,0-10.7,4.8-10.7,10.7v117.3h-32
			c-4,0-7.6,2.2-9.5,5.7c-1.8,3.5-1.6,7.8,0.7,11l74.7,106.7c2,2.9,5.3,4.6,8.7,4.6c3.5,0,6.7-1.7,8.7-4.6L232.6,294
			C234.9,290.7,235.2,286.5,233.3,283z"/>
	</g>
</g>
<g>
	<g>
		<path d="M394.7,170.7h-128c-5.9,0-10.7,4.8-10.7,10.7c0,5.9,4.8,10.7,10.7,10.7h128c5.9,0,10.7-4.8,10.7-10.7
			C405.3,175.4,400.6,170.7,394.7,170.7z"/>
	</g>
</g>
<g>
	<g>
		<path d="M394.7,234.7h-128c-5.9,0-10.7,4.8-10.7,10.7c0,5.9,4.8,10.7,10.7,10.7h128c5.9,0,10.7-4.8,10.7-10.7
			C405.3,239.4,400.6,234.7,394.7,234.7z"/>
	</g>
</g>
<g>
	<g>
		<path d="M503.9,363l-20.4-5.1l10.8-18.1c2.5-4.2,1.9-9.6-1.6-13l-30.2-30.2c-3.5-3.5-8.9-4.1-13-1.6l-18.1,10.8l-5.1-20.4
			c-1.2-4.7-5.4-8.1-10.3-8.1h-42.7c-4.9,0-9.2,3.3-10.3,8.1l-5.1,20.4L339.8,295c-4.2-2.5-9.6-1.9-13,1.6l-30.2,30.2
			c-3.5,3.5-4.1,8.8-1.6,13l10.8,18.1l-20.4,5.1c-4.7,1.2-8.1,5.4-8.1,10.3V416c0,4.9,3.3,9.2,8.1,10.3l20.4,5.1L295,449.5
			c-2.5,4.2-1.9,9.6,1.6,13l30.2,30.2c3.5,3.4,8.8,4.1,13,1.6l18.1-10.8l5.1,20.4c1.2,4.7,5.4,8.1,10.3,8.1H416
			c4.9,0,9.2-3.3,10.3-8.1l5.1-20.4l18.1,10.8c4.2,2.5,9.6,1.9,13-1.6l30.2-30.2c3.5-3.5,4.1-8.8,1.6-13l-10.8-18.1l20.4-5.1
			c4.7-1.2,8.1-5.4,8.1-10.3v-42.7C512,368.4,508.7,364.2,503.9,363z M394.7,448c-29.4,0-53.3-23.9-53.3-53.3
			c0-29.4,23.9-53.3,53.3-53.3c29.4,0,53.3,23.9,53.3,53.3C448,424.1,424.1,448,394.7,448z"/>
	</g>
</g>
<g>
	<g>
		<path d="M426.6,0h-384C19.1,0,0,19.1,0,42.7v384c0,23.5,19.1,42.7,42.7,42.7h219c3,0,5.8-1.3,7.9-3.4c2-2.2,3-5.1,2.8-8.1
			c-0.2-2.5-0.2-4.7,0.1-6.8c0.5-3.7-1.1-7.4-4-9.7c-3.1-2.4-5.7-5.5-8-9.4c-1.9-3.3-5.4-5.3-9.2-5.3H42.7v-320h384v144.6
			c0,3.8,2,7.3,5.3,9.2c3.9,2.3,7,4.9,9.3,7.8c9.7,9.9,22.4,3.3,24.6,1.3s3.4-4.9,3.4-7.9v-219C469.3,19.2,450.2,0,426.6,0z
			 M53.3,64c-5.9,0-10.7-4.8-10.7-10.7c0.1-5.9,4.8-10.6,10.7-10.6c5.9,0,10.7,4.8,10.7,10.7C64,59.2,59.2,64,53.3,64z M96,64.1
			c-5.9,0-10.7-4.8-10.7-10.7c0-6,4.8-10.7,10.7-10.7s10.7,4.8,10.7,10.7C106.7,59.3,101.9,64.1,96,64.1z M138.7,64.1
			c-5.9,0-10.7-4.9-10.7-10.8c0-5.9,4.8-10.6,10.7-10.6c5.9,0,10.7,4.8,10.7,10.7C149.4,59.3,144.6,64.1,138.7,64.1z"/>
	</g>
</g>
<g>
</g>
<g>
</g>
<g>
</g>
<g>
</g>
<g>
</g>
<g>
</g>
<g>
</g>
<g>
</g>
<g>
</g>
<g>
</g>
<g>
</g>
<g>
</g>
<g>
</g>
<g>
</g>
<g>
</g>
</svg>
