<?xml version="1.0" encoding="UTF-8"?><svg xmlns="http://www.w3.org/2000/svg" viewBox="0 0 688 688.15423"><defs><style>.c{fill:#fff;fill-rule:evenodd;}.d{fill:#231f20;}</style></defs><g id="a"/><g id="b"><g><circle class="d" cx="343.99998" cy="356.60529" r="224.84746" transform="translate(-151.40276 347.69198) rotate(-45)"/><path class="c" d="M218.94605,311.47186h50.636v170.0376h-50.636v-170.0376Zm25.0053-86.269c16.8788,0,30.6317,13.753,30.6317,30.6317s-13.7529,30.6318-30.6317,30.6318-30.0065-13.753-30.0065-30.6318,13.1279-30.6317,30.0065-30.6317h0Zm55.6374,86.269h50.0109v23.7554c10.6274-15.6286,28.1313-25.6309,48.1356-25.6309h13.7531c31.882,0,57.5127,26.2559,57.5127,57.5127v114.4004h-50.011v-15.6285h0v-76.2667h0c-.6252-19.3792-13.753-34.3828-33.1322-34.3828h0c-19.3794,0-35.633,15.0036-36.2582,34.3828h0v91.8952h-50.0109v-170.0376Z"/></g></g></svg>