<svg id="Layer_1" enable-background="new 0 0 68 68" height="512" viewBox="0 0 68 68" width="512" xmlns="http://www.w3.org/2000/svg"><g><path d="m32.22808 53.43806h3.55394l-1.77697-1.77697z"/><path d="m5.76547 14.24393v36.97291c0 1.23173.99959 2.22121 2.22121 2.22121h1.59524c.50482-1.3832 1.31252-2.68567 2.44331-3.80635 2.36258-2.38273 5.70447-3.39236 8.63239-3.01881l4.14965-4.14959-3.56405-3.55394c-2.91787.37356-6.24966-.63607-8.63239-2.99859-2.6856-2.69577-3.71545-6.62328-2.69571-10.25795.30288-1.07021 1.2923-1.80723 2.41299-1.80723.6765 0 1.31258.26252 1.78708.73701l4.11934 4.11934 1.99906-2.00917-4.10923-4.10923c-.63608-.63608-.88848-1.56493-.65623-2.43326.22209-.84806.88849-1.52456 1.72644-1.76686 3.54384-.96921 7.46123-.10094 10.23774 2.69578 2.27168 2.26158 3.39237 5.553 3.0087 8.63239l3.55394 3.56399 4.13949-4.13949c-.31298-2.60488.44424-6.06793 3.01887-8.63239 2.57456-2.58467 6.16887-3.55394 9.42998-2.89766 1.03996.20188 1.85776.95911 2.16064 1.96874.31299 1.01974.04036 2.11017-.71686 2.85729l-3.67503 3.6852 1.99906 2.00917 3.67509-3.66499c.53508-.54518 1.25194-.83802 2.01928-.83802 1.36298 0 2.54424.94906 2.80676 2.26158.67644 3.4429-.39378 6.96652-2.87744 9.44015-2.23132 2.22121-5.46217 3.40247-8.63239 2.99859l-4.14966 4.14965 10.96471 10.96465h5.84578c1.22168 0 2.23132-.98949 2.23132-2.22121v-36.97291z"/><path d="m62.22972 4.72343c0-1.23395-1.00045-2.22343-2.22343-2.22343h-52.01683c-1.22285 0-2.22343.98949-2.22343 2.22343v7.50406h56.4637v-7.50406zm-49.72432 3.64971h-1.94385c-.55757 0-1.00964-.45158-1.00964-1.00964s.45207-1.00964 1.00964-1.00964h1.94385c.55757 0 1.00964.45158 1.00964 1.00964s-.45207 1.00964-1.00964 1.00964zm5.79112 0h-1.94385c-.55757 0-1.00964-.45158-1.00964-1.00964s.45207-1.00964 1.00964-1.00964h1.94385c.55757 0 1.00964.45158 1.00964 1.00964s-.45207 1.00964-1.00964 1.00964zm5.79062 0h-1.94384c-.55757 0-1.00964-.45158-1.00964-1.00964s.45207-1.00964 1.00964-1.00964h1.94385c.55757 0 1.00964.45158 1.00964 1.00964s-.45208 1.00964-1.00965 1.00964zm33.34712 0h-18.97162c-.55757 0-1.00964-.45158-1.00964-1.00964s.45207-1.00964 1.00964-1.00964h18.97161c.55757 0 1.00964.45158 1.00964 1.00964s-.45206 1.00964-1.00963 1.00964z"/><path d="m32.57138 50.23746-6.34055-6.34049-4.89672 4.89672c-2.54431-.65623-5.69437.07068-7.88526 2.26164-3.61452 3.61446-3.28132 9.67228.98942 12.82235 2.59478 1.91833 6.15876 2.15053 8.99584.61592 3.79625-2.04959 5.03814-6.24966 4.24049-9.35936zm-10.20747 9.73292-4.00823 1.07021-2.93808-2.92791 1.08032-4.00829 4.00829-1.08032 2.92791 2.93808z"/><path d="m41.76917 41.03968 4.89672-4.89672c2.52409.66634 5.68426-.05047 7.88527-2.25147 2.06981-2.0597 2.84718-4.93714 2.32221-7.6026-.13126-.64618-.95917-.86827-1.42362-.40388l-4.503 4.503c-.33314.3332-.85817.3332-1.19137 0l-3.66499-3.67509c-.33314-.33314-.33314-.85817 0-1.19136l4.51311-4.51305c.46445-.46445.2423-1.29237-.40388-1.42362-2.6755-.51492-5.5429.26252-7.62275 2.34237-2.30194 2.302-2.90776 5.63379-2.25147 7.87516l-4.89678 4.89678z"/><path d="m28.26022 30.38802c.65444-2.54418-.0689-5.70263-2.25147-7.88526-2.24161-2.24155-5.41793-2.97055-8.26604-2.1713-.35415.0994-.45379.55929-.19368.8194l4.87022 4.87028c.37103.37103.37134.97254.00068 1.34394l-3.51303 3.52036c-.37122.37196-.97377.37227-1.34536.00068l-4.87897-4.87891c-.26011-.26011-.72001-.16053-.81941.19368-.79926 2.84817-.07031 6.02529 2.17124 8.27614 2.21283 2.20082 5.35945 2.90079 7.88527 2.25153l26.8766 26.87654c.87838.87838 2.01927 1.31251 3.17021 1.31251 1.1409 0 2.2919-.43414 3.17028-1.31251 1.74665-1.74672 1.74665-4.58379 0-6.34055z"/></g></svg>