<svg id="Capa_1" enable-background="new 0 0 512 512" height="512" viewBox="0 0 512 512" width="512" xmlns="http://www.w3.org/2000/svg"><path d="m228.663 300.343c17.396 14.409 27.374 35.524 27.374 57.93v63.727h60v-63.728c0-22.405 9.978-43.521 27.374-57.93 42.35-35.083 43.684-99.437 2.626-136.381v41.039c0 3.979-1.581 7.794-4.394 10.606l-20 20c-2.813 2.813-6.628 4.394-10.606 4.394h-50c-3.978 0-7.793-1.58-10.606-4.394l-20-20c-2.813-2.813-4.394-6.628-4.394-10.606v-41.038c-41.047 36.933-39.739 101.287 2.626 136.381z"/><path d="m481.036 497v-45h-390c-16.542 0-30 13.458-30 30s13.458 30 30 30h375c8.284 0 15-6.716 15-15z"/><path d="m121.036 422h105v-63.728c0-13.441-6.018-26.135-16.511-34.826-27.638-22.895-43.489-56.59-43.489-92.446 0-47.368 27.565-88.969 68.565-108.439 9.939-4.719 21.435 2.54 21.435 13.55v62.677l11.214 11.212h37.573l11.213-11.213v-62.677c0-11.003 11.488-18.27 21.435-13.55 41.003 19.472 68.565 61.075 68.565 108.439 0 35.856-15.851 69.552-43.489 92.446-10.493 8.691-16.511 21.385-16.511 34.826v63.729h135v-407c0-8.284-6.716-15-15-15h-345zm75-361h180c8.284 0 15 6.716 15 15s-6.716 15-15 15h-180c-8.284 0-15-6.716-15-15s6.716-15 15-15z"/><path d="m31.621 473.72c4.047-29.178 29.141-51.72 59.415-51.72v-422h-14.5c-25.089 0-45.5 20.411-45.5 45.5 0 455.387-.376 422.22.585 428.22z"/></svg>