<svg id="Layer_1" enable-background="new 0 0 511.997 511.997" height="512" viewBox="0 0 511.997 511.997" width="512" xmlns="http://www.w3.org/2000/svg"><g><path d="m173.406 446.712h-22.664v30h210.535v-30h-22.662l-7.141-36.333h-150.928z"/><path d="m188.909 196.097 6.993-37.073h-82.08l6.993 37.073z"/><path d="m0 344.375h511.997v36.004h-511.997z"/><path d="m511.997 35.285h-511.997v279.091h511.997zm-374.268 239.482h-30v-30.002h30zm64.265 0h-30v-30.002h30zm-126.969-159.6h-17.349v-30h42.219l8.273 43.856h123.922l-18.312 97.073h-117.833zm379.005 137.397h-153.02v-30h153.02zm0-60.003h-153.02v-30h153.02zm-153.02-60.004v-30h153.02v30z"/></g></svg>