<?xml version="1.0" encoding="iso-8859-1"?>
<!-- Generator: Adobe Illustrator 19.0.0, SVG Export Plug-In . SVG Version: 6.00 Build 0)  -->
<svg version="1.1" id="Capa_1" xmlns="http://www.w3.org/2000/svg" xmlns:xlink="http://www.w3.org/1999/xlink" x="0px" y="0px"
	 viewBox="0 0 512 512" style="enable-background:new 0 0 512 512;" xml:space="preserve">
<g>
	<g>
		<path d="M404.719,30.024v60.024H107.282V30.024H62.235V512h387.531V30.024H404.719z M152.294,390.288h-30.023v-30h30.023V390.288z
			 M152.294,320.232h-30.023v-30h30.023V320.232z M152.294,250.176h-30.023v-30h30.023V250.176z M152.294,180.12h-30.023v-30h30.023
			V180.12z M389.729,390.288H182.318v-30h207.411V390.288z M389.729,320.232H182.318v-30h207.411V320.232z M389.729,250.176H182.318
			v-30h207.411V250.176z M389.729,180.12H182.318v-30h207.411V180.12z"/>
	</g>
</g>
<g>
	<g>
		<rect x="137.281" width="237.44" height="60.05"/>
	</g>
</g>
<g>
</g>
<g>
</g>
<g>
</g>
<g>
</g>
<g>
</g>
<g>
</g>
<g>
</g>
<g>
</g>
<g>
</g>
<g>
</g>
<g>
</g>
<g>
</g>
<g>
</g>
<g>
</g>
<g>
</g>
</svg>
