<svg id="Solid" height="512" viewBox="0 0 512 512" width="512" xmlns="http://www.w3.org/2000/svg"><path d="m264 376h-33.062l-5.51 38.572 38.572-5.51z"/><path d="m264 192h-136v32h228.686l27.314-27.314v-116.686h-256v96h136a8 8 0 0 1 0 16zm96 0h-64a8 8 0 0 1 0-16h64a8 8 0 0 1 0 16zm-176-48a8 8 0 0 1 0-16h176a8 8 0 0 1 0 16z"/><path d="m277.654 421.653a7.965 7.965 0 0 1 -4.522 2.266l-56 8a7.856 7.856 0 0 1 -1.132.081 8 8 0 0 1 -7.92-9.131l8-56a7.968 7.968 0 0 1 2.266-4.522l74.34-74.347h-60.686a8 8 0 0 1 0-16h76.686l32-32h-212.686v32h72a8 8 0 0 1 0 16h-72v32h96a8 8 0 0 1 0 16h-96v144h256v-164.686l-106.343 106.343z"/><path d="m280 371.314v25.372l148.686-148.686-12.686-12.686z"/><path d="m479.029 197.657a8.01 8.01 0 0 0 0-11.314l-25.373-25.373a8.007 8.007 0 0 0 -11.312 0l-15.03 15.03 36.686 36.686z"/><path d="m112 80h-32a31.8 31.8 0 0 1 -16-4.305v51.732c10.392-1.549 16-5.811 16-7.427a8 8 0 0 1 16 0c0 12.028-13.293 21.454-32 23.557v47.87c10.392-1.549 16-5.811 16-7.427a8 8 0 0 1 16 0c0 12.028-13.293 21.454-32 23.557v47.87c10.392-1.549 16-5.811 16-7.427a8 8 0 0 1 16 0c0 12.028-13.293 21.454-32 23.557v47.87c10.392-1.549 16-5.811 16-7.427a8 8 0 0 1 16 0c0 12.028-13.293 21.454-32 23.557v47.87c10.392-1.549 16-5.811 16-7.427a8 8 0 0 1 16 0c0 12.028-13.293 21.454-32 23.557v47.87c10.392-1.549 16-5.811 16-7.427a8 8 0 0 1 16 0c0 12.028-13.293 21.454-32 23.557v16.443h48z"/><path d="m268.686 360 136-136-12.686-12.686-148.686 148.686z"/><path d="m419.03 186.059h17.941v51.882h-17.941z" transform="matrix(.707 -.707 .707 .707 -24.548 364.735)"/><path d="m80 64h304v-32h-304a16 16 0 0 0 0 32z"/><path d="m32 120c0 1.61 5.6 5.88 16 7.42v16.14c-18.71-2.1-32-11.53-32-23.56s13.29-21.46 32-23.56v16.14c-10.4 1.54-16 5.81-16 7.42z"/><path d="m32 184c0 1.61 5.6 5.88 16 7.42v16.14c-18.71-2.1-32-11.53-32-23.56s13.29-21.46 32-23.56v16.14c-10.4 1.54-16 5.81-16 7.42z"/><path d="m32 248c0 1.61 5.6 5.88 16 7.42v16.14c-18.71-2.1-32-11.53-32-23.56s13.29-21.46 32-23.56v16.14c-10.4 1.54-16 5.81-16 7.42z"/><path d="m32 312c0 1.61 5.6 5.88 16 7.42v16.14c-18.71-2.1-32-11.53-32-23.56s13.29-21.46 32-23.56v16.14c-10.4 1.54-16 5.81-16 7.42z"/><path d="m32 376c0 1.61 5.6 5.88 16 7.42v16.14c-18.71-2.1-32-11.53-32-23.56s13.29-21.46 32-23.56v16.14c-10.4 1.54-16 5.81-16 7.42z"/><path d="m32 440c0 1.61 5.6 5.88 16 7.42v16.14c-18.71-2.1-32-11.53-32-23.56s13.29-21.46 32-23.56v16.14c-10.4 1.54-16 5.81-16 7.42z"/></svg>