<?xml version="1.0" encoding="UTF-8"?><svg xmlns="http://www.w3.org/2000/svg" viewBox="0 0 688 688.15423"><defs><style>.c{fill:#fff;fill-rule:evenodd;}.d{fill:#231f20;}</style></defs><g id="a"/><g id="b"><g><circle class="d" cx="343.99998" cy="321.31029" r="224.84741" transform="translate(-126.44542 337.35432) rotate(-45)"/><path class="c" d="M462.52475,251.94081c-13.8205-1.8847-25.7563-9.423-35.8076-20.7306-11.936-13.1924-18.8462-30.782-18.218-47.7434h-49.6279v197.8837c0,23.2436-18.8462,42.0894-42.7177,42.0894-13.8204,0-26.3845-6.9101-34.5511-17.5896-5.0256-6.9102-7.5387-15.705-7.5387-24.4998,0-23.2436,18.8461-42.0897,42.0898-42.0897,4.3974,0,8.7947,.6282,12.5641,1.8847v-50.256c-3.7694-.6283-8.1667-1.2567-12.5641-1.2567h-1.8846c-50.2562,1.2567-89.833,42.0896-89.833,91.7177,0,23.8717,9.4231,45.8589,24.4999,62.1919,16.9614,17.5899,40.8332,28.8975,67.2177,28.8975,50.8844,0,92.3456-40.8332,92.3456-91.0894v-103.0252c18.8462,16.9615,43.346,25.1281,68.4741,23.2436v-49.6281c-5.0256,1.2565-10.051,1.2565-14.4485,0Z"/></g></g></svg>