<?xml version="1.0" encoding="UTF-8"?><svg xmlns="http://www.w3.org/2000/svg" viewBox="0 0 688 688.15423"><defs><style>.c{fill:#fff;fill-rule:evenodd;}.d{fill:#231f20;}</style></defs><g id="a"/><g id="b"><g><circle class="d" cx="366.7244" cy="344.07714" r="224.84745" transform="translate(-135.88819 360.09117) rotate(-45)"/><path class="c" d="M369.2102,304.11336c-11.0783-58.3465,59.085-93.0588,100.4445-50.9607,0,0,18.4639-5.17,34.7125-15.5099,0,0-5.9085,19.9413-25.8498,32.4967,0,0,22.1569-2.954,31.7581-8.8627,0,0-9.6012,19.9413-27.3267,27.3269,9.6014,133.6796-134.4183,214.9215-251.1112,148.4509,0,0,57.6079,2.9544,81.9805-25.1111,0,0-35.4512,2.9542-53.1765-39.8824,0,0,13.2942,5.17,26.5881-1.4771,0,0-41.3593-6.6472-45.0522-56.1305,0,0,13.2942,10.3396,28.0654,6.6469,0,0-45.7909-27.3269-19.9413-76.8104,0,0,48.7453,62.0392,118.9086,59.8234h0Z"/></g></g></svg>