<svg height="512" viewBox="0 0 64 64" width="512" xmlns="http://www.w3.org/2000/svg"><g id="_26_Web_hosting" data-name="26 Web hosting"><path d="m48 24.957v-3.5537a19.053 19.053 0 0 0 -2.4637 3.3476c.7724.0965 1.5957.1691 2.4637.2061z"/><path d="m44.8636 37.2607a29.5838 29.5838 0 0 1 3.1364-.2614v-3.9993h-4.27a15.5446 15.5446 0 0 0 1.1336 4.2607z"/><path d="m50 21.5732v3.4017c.7133-.0187 1.4514-.075 2.2017-.1544a22.7981 22.7981 0 0 0 -2.2017-3.2473z"/><path d="m43.668 31h4.332v-4.0115a31.6966 31.6966 0 0 1 -3.3969-.3178 13.0078 13.0078 0 0 0 -.9351 4.3293z"/><path d="m38.1265 39.1043a39.9085 39.9085 0 0 1 4.7206-1.4984 17.2007 17.2007 0 0 1 -1.134-4.6059h-5.6624a12.9061 12.9061 0 0 0 2.0758 6.1043z"/><path d="m55.4177 37.6935a21.4538 21.4538 0 0 1 4.4523 1.4165 12.9059 12.9059 0 0 0 2.0793-6.11h-5.6212a14.9156 14.9156 0 0 1 -.9104 4.6935z"/><path d="m53.1393 26.746a29.32 29.32 0 0 1 -3.1393.2508v4.0032h4.27a15.54 15.54 0 0 0 -1.1307-4.254z"/><path d="m38.1282 24.8929a12.906 12.906 0 0 0 -2.0775 6.1071h5.6213a14.9155 14.9155 0 0 1 .91-4.6918 16.1247 16.1247 0 0 1 -4.4538-1.4153z"/><path d="m48 42.4268v-3.4024c-.7134.0185-1.4517.0748-2.2023.1541a22.7921 22.7921 0 0 0 2.2023 3.2483z"/><path d="m47.4734 19.0978a12.9652 12.9652 0 0 0 -8.1106 4.2081 26.4165 26.4165 0 0 0 4.0717 1.1085 21.57 21.57 0 0 1 4.0389-5.3166z"/><path d="m39.369 40.7007a12.9648 12.9648 0 0 0 8.13 4.2054 24.33 24.33 0 0 1 -3.8147-5.4149 24.967 24.967 0 0 0 -4.3153 1.2095z"/><path d="m50.5266 44.9022a12.9656 12.9656 0 0 0 8.1093-4.2067 26.41 26.41 0 0 0 -4.0707-1.1093 21.571 21.571 0 0 1 -4.0386 5.316z"/><path d="m58.63 23.2978a12.965 12.965 0 0 0 -8.1288-4.204 24.33 24.33 0 0 1 3.8141 5.4137 24.9725 24.9725 0 0 0 4.3147-1.2097z"/><path d="m50 39.0428v3.5538a19.0546 19.0546 0 0 0 2.4636-3.3474c-.7723-.0966-1.5957-.1692-2.4636-.2064z"/><path d="m54.332 33h-4.332v4.0161a31.6531 31.6531 0 0 1 3.3952.3177 13.0087 13.0087 0 0 0 .9368-4.3338z"/><path d="m56.2869 31h5.6624a12.9059 12.9059 0 0 0 -2.0773-6.1068c-.2014.33-3.2749 1.2036-4.7173 1.5054a17.2 17.2 0 0 1 1.1322 4.6014z"/><path d="m35 15a1.0007 1.0007 0 0 0 0-2 1.0007 1.0007 0 0 0 0 2z"/><path d="m28 15a1.0007 1.0007 0 0 0 0-2 1.0007 1.0007 0 0 0 0 2z"/><path d="m8 13h14v2h-14z"/><path d="m8 31h14v2h-14z"/><path d="m28 33a1.0007 1.0007 0 0 0 0-2 1.0007 1.0007 0 0 0 0 2z"/><path d="m35 49a1.0007 1.0007 0 0 0 0 2 1.0007 1.0007 0 0 0 0-2z"/><path d="m38.8364 43h-15.8364v-4h12.7435a14.8787 14.8787 0 0 1 -1.4557-4.0947 3.0076 3.0076 0 0 1 0-5.8105 14.8794 14.8794 0 0 1 1.4557-4.0948h-12.7435v-4h15.8364a15.0551 15.0551 0 0 1 3.0406-2.1971 2.96 2.96 0 0 0 .123-.8029v-8a3.0033 3.0033 0 0 0 -3-3h-34a3.0033 3.0033 0 0 0 -3 3v8a3.0033 3.0033 0 0 0 3 3h16v4h-16a3.0033 3.0033 0 0 0 -3 3v8a3.0033 3.0033 0 0 0 3 3h16v4h-16a3.0033 3.0033 0 0 0 -3 3v8a3.0033 3.0033 0 0 0 3 3h34a3.0033 3.0033 0 0 0 3-3v-8a2.96 2.96 0 0 0 -.1229-.8028 15.0554 15.0554 0 0 1 -3.0407-2.1972zm-3.8364-32c3.8672 0 3.8651 6 0 6s-3.8676-6 0-6zm-7 0c3.8672 0 3.8651 6 0 6s-3.8676-6 0-6zm-22 4v-2a2.0023 2.0023 0 0 1 2-2h14a2.0023 2.0023 0 0 1 2 2v2a2.0023 2.0023 0 0 1 -2 2h-14a2.0023 2.0023 0 0 1 -2-2zm22 14c3.8672 0 3.8651 6 0 6s-3.8676-6 0-6zm-22 4v-2a2.0023 2.0023 0 0 1 2-2h14a2.0023 2.0023 0 0 1 2 2v2a2.0023 2.0023 0 0 1 -2 2h-14a2.0023 2.0023 0 0 1 -2-2zm18 18a2.0023 2.0023 0 0 1 -2 2h-14a2.0023 2.0023 0 0 1 -2-2v-2a2.0023 2.0023 0 0 1 2-2h14a2.0023 2.0023 0 0 1 2 2zm4 2c-3.8672 0-3.8651-6 0-6s3.8676 6 0 6zm7 0c-3.8672 0-3.8651-6 0-6s3.8676 6 0 6z"/><path d="m28 49a1.0007 1.0007 0 0 0 0 2 1.0007 1.0007 0 0 0 0-2z"/><path d="m8 49h14v2h-14z"/></g></svg>