<?xml version="1.0" encoding="UTF-8"?><svg xmlns="http://www.w3.org/2000/svg" viewBox="0 0 688 688.15423"><defs><style>.c{fill:#fff;}.c,.d{fill-rule:evenodd;}.d,.e{fill:#231f20;}</style></defs><g id="a"/><g id="b"><g><circle class="e" cx="344" cy="344.41984" r="224.8475" transform="translate(-142.78634 344.12297) rotate(-45)"/><g><path class="c" d="M261.4384,249.28981c26.92289-2.1537,58.6921-3.2306,82.9225-3.2306h0c24.2308,0,55.4614,1.0769,82.9229,3.2306,31.769,2.6925,47.9228,8.0771,52.2305,39.8461,2.1538,14.5385,3.2307,34.4614,3.2307,54.9229h0c0,20.4614-1.0769,40.9229-3.2307,54.9229-4.3077,32.3075-20.4615,37.1537-52.2305,39.8459-27.4615,2.6923-58.6921,3.2307-82.9229,3.2307h0c-24.2304,0-55.99961-.5384-82.9225-3.2307-31.7692-2.6922-48.4615-7.5384-52.7691-39.8459-1.6154-14-2.6923-34.4615-2.6923-54.9229h0c0-20.4615,1.0769-40.3844,2.6923-54.9229,4.3076-31.769,20.9999-37.1536,52.7691-39.8461h0Z"/><polygon class="d" points="316.3611 302.59751 388.5147 344.05881 316.3611 386.05861 316.3611 302.59751"/></g></g></g></svg>